<?xml version="1.0" encoding="UTF-8"?>
<svg width="156px" height="40px" viewBox="0 0 156 40" version="1.1" xmlns="http://www.w3.org/2000/svg" xmlns:xlink="http://www.w3.org/1999/xlink">
    <title>HostPrompt Logo</title>
    <g id="Logo" stroke="none" stroke-width="1" fill="none" fill-rule="evenodd">
        <g id="HostPrompt-Logo" transform="translate(0.000000, 5.000000)" fill-rule="nonzero">
            <path d="M12.9223,22.1418 C12.9223,19.4737 10.7583,17.3097 8.0902,17.3097 C5.4221,17.3097 3.2581,19.4737 3.2581,22.1418 C3.2581,24.8099 5.4221,26.9739 8.0902,26.9739 C10.7583,26.9739 12.9223,24.8099 12.9223,22.1418 Z" id="Path" fill="#FF5C5C"></path>
            <path d="M29.0645,0 L0,0 L0,29.0645 L16.1376,29.0645 C16.1376,29.0645 20.4064,29.0645 20.4064,24.9677 L20.4064,16.4516 L29.0645,16.4516 L29.0645,0 Z M14.5161,21.7742 C14.5161,25.0273 11.8854,27.6581 8.6323,27.6581 C5.3791,27.6581 2.7484,25.0273 2.7484,21.7742 C2.7484,18.5211 5.3791,15.8903 8.6323,15.8903 C11.8854,15.8903 14.5161,18.5211 14.5161,21.7742 Z" id="Shape" fill="#FF5C5C"></path>
            <path d="M44.7515,13.0952 L44.7515,6.0952 L41.9515,6.0952 L41.9515,23.0952 L44.7515,23.0952 L44.7515,16.0152 C44.7515,13.3352 46.6715,11.5552 49.3115,11.5552 L49.3115,5.9152 C47.3515,5.9152 45.7915,6.8352 44.7515,8.6552 L44.7515,6.0952 L44.7515,13.0952 Z" id="Path" fill="#333333"></path>
            <path d="M57.5114,17.6352 C57.5114,15.5952 58.9114,14.5152 60.9114,14.5152 C62.9114,14.5152 64.3114,15.5952 64.3114,17.6352 L64.3114,23.0952 L67.1114,23.0952 L67.1114,16.8352 C67.1114,13.3352 64.9714,11.6352 61.7914,11.6352 C60.1514,11.6352 58.5514,12.2952 57.5114,13.5152 L57.5114,6.0952 L54.7114,6.0952 L54.7114,23.0952 L57.5114,23.0952 L57.5114,17.6352 Z" id="Path" fill="#333333"></path>
            <path d="M74.6714,9.1952 C75.5914,9.1952 76.3514,8.4352 76.3514,7.5152 C76.3514,6.5952 75.5914,5.8352 74.6714,5.8352 C73.7514,5.8352 72.9914,6.5952 72.9914,7.5152 C72.9914,8.4352 73.7514,9.1952 74.6714,9.1952 Z M73.2714,23.0952 L76.0714,23.0952 L76.0714,11.9152 L73.2714,11.9152 L73.2714,23.0952 Z" id="Shape" fill="#333333"></path>
            <path d="M83.0713,23.0952 L83.0713,16.1552 C83.0713,14.3752 84.3313,13.3752 86.1513,13.3752 C87.8313,13.3752 88.9113,14.2752 88.9113,16.3752 L88.9113,23.0952 L91.7113,23.0952 L91.7113,15.7552 C91.7113,12.2552 89.5713,11.6352 87.3913,11.6352 C85.8713,11.6352 84.0913,12.1552 83.0713,13.6752 L83.0713,11.9152 L80.2713,11.9152 L80.2713,23.0952 L83.0713,23.0952 Z" id="Path" fill="#333333"></path>
            <path d="M104.8313,23.0952 L104.8313,6.0952 L102.0313,6.0952 L102.0313,13.4352 C101.0313,12.3352 99.7313,11.6352 98.0713,11.6352 C94.8713,11.6352 92.5113,14.1552 92.5113,17.5152 C92.5113,20.8752 94.8713,23.3952 98.0713,23.3952 C99.7313,23.3952 101.0313,22.6952 102.0313,21.5952 L102.0313,23.0952 L104.8313,23.0952 Z M95.3113,17.5152 C95.3113,15.7752 96.6513,14.2752 98.5313,14.2752 C100.4113,14.2752 101.7513,15.7752 101.7513,17.5152 C101.7513,19.2552 100.4113,20.7552 98.5313,20.7552 C96.6513,20.7552 95.3113,19.2552 95.3113,17.5152 Z" id="Shape" fill="#333333"></path>
            <path d="M107.2712,23.0952 L110.0712,23.0952 L110.0712,6.0952 L107.2712,6.0952 L107.2712,23.0952 Z" id="Path" fill="#333333"></path>
            <path d="M119.5112,23.0952 C123.7912,23.0952 126.4312,20.2752 126.4312,17.1152 L123.6312,17.1152 C123.6312,18.9752 122.0712,20.4352 119.5112,20.4352 C116.9512,20.4352 115.3912,18.9752 115.3912,17.1152 L112.5912,17.1152 C112.5912,20.2752 115.2312,23.0952 119.5112,23.0952 Z" id="Path" fill="#333333"></path>
            <path d="M112.5912,14.5952 L115.3912,14.5952 C115.3912,12.7352 116.9512,11.2752 119.5112,11.2752 C122.0712,11.2752 123.6312,12.7352 123.6312,14.5952 L126.4312,14.5952 C126.4312,11.4352 123.7912,8.6152 119.5112,8.6152 C115.2312,8.6152 112.5912,11.4352 112.5912,14.5952 Z" id="Path" fill="#333333"></path>
            <path d="M134.0711,23.0952 L134.0711,19.5152 L135.8911,17.7152 L139.8311,23.0952 L143.3311,23.0952 L137.9911,15.9552 L142.9511,11.9152 L139.3311,11.9152 L134.0711,16.3752 L134.0711,6.0952 L131.2711,6.0952 L131.2711,23.0952 L134.0711,23.0952 Z" id="Path" fill="#333333"></path>
            <path d="M151.3511,23.3952 C154.7111,23.3952 156.9911,21.3152 156.9911,18.6352 C156.9911,14.0752 151.0311,14.8752 151.0311,13.2352 C151.0311,12.6552 151.6111,12.1952 152.6111,12.1952 C153.6511,12.1952 154.2711,12.7352 154.4711,13.5152 L156.9111,13.5152 C156.7911,11.5552 155.0111,9.9552 152.6111,9.9552 C149.9311,9.9552 148.3511,11.5152 148.3511,13.3952 C148.3511,17.8352 154.3111,16.9152 154.3111,18.7952 C154.3111,19.4952 153.6911,20.1552 152.3911,20.1552 C151.0711,20.1552 150.3911,19.4152 150.1911,18.4752 L147.6311,18.4752 C147.6311,21.1552 149.6711,23.3952 151.3511,23.3952 Z" id="Path" fill="#333333"></path>
        </g>
    </g>
</svg>